<?xml version="1.0" encoding="UTF-8"?>
<svg version="1.1" xmlns="http://www.w3.org/2000/svg" width="128" height="128">
<path d="M0 0 C3.04221065 -0.08132642 6.0822238 -0.14065374 9.125 -0.1875 C9.9809375 -0.21263672 10.836875 -0.23777344 11.71875 -0.26367188 C16.90609711 -0.32352588 20.5456379 0.02348701 25 3 C27.13372486 6.20058729 27.46560278 8.18258832 27.40234375 11.9921875 C26.73310805 15.33186859 24.56653554 16.94677157 22 19 C22.94875 19.5775 23.8975 20.155 24.875 20.75 C29.19214586 23.85834502 29.19214586 23.85834502 30 27 C30.06692011 30.61368583 29.90183664 32.98994297 27.4375 35.75 C23.32109061 39.3175548 20.73252745 41.13091884 15.2109375 41.09765625 C14.26992187 41.09443359 13.32890625 41.09121094 12.359375 41.08789062 C11.37453125 41.07951172 10.3896875 41.07113281 9.375 41.0625 C7.88613281 41.05573242 7.88613281 41.05573242 6.3671875 41.04882812 C3.9113984 41.03702145 1.45572896 41.020554 -1 41 C-0.6875 39.0625 -0.6875 39.0625 0 37 C1.485 36.505 1.485 36.505 3 36 C3.33 25.44 3.66 14.88 4 4 C2.68 4 1.36 4 0 4 C0 2.68 0 1.36 0 0 Z M10 4 C10 8.62 10 13.24 10 18 C15.17446776 18.40914759 15.17446776 18.40914759 20 17 C21.63208836 13.73582328 21.65289471 10.56124386 21 7 C19.55851025 4.81452316 19.55851025 4.81452316 17 4 C14.69 4 12.38 4 10 4 Z M10 22 C9.01580661 26.05979772 8.76816633 29.82699392 9 34 C9.99 35.485 9.99 35.485 11 37 C13.09842369 37.47722472 13.09842369 37.47722472 15.4375 37.375 C16.61119141 37.38660156 16.61119141 37.38660156 17.80859375 37.3984375 C20.52128958 36.90522008 21.40222461 36.227813 23 34 C23.55618667 31.295406 23.42629934 28.72263177 23 26 C21.18836733 23.32568511 20.12238923 23.04079641 17 22 C14.66700175 21.96045766 12.33291811 21.95598268 10 22 Z " fill="#000000" transform="translate(54,44)"/>
<path d="M0 0 C-0.33 3.96 -0.66 7.92 -1 12 C-2.32 12 -3.64 12 -5 12 C-5.144375 10.865625 -5.28875 9.73125 -5.4375 8.5625 C-5.61171478 5.19222799 -5.61171478 5.19222799 -7 4 C-12.2668166 3.51098273 -12.2668166 3.51098273 -17.0625 5.1875 C-18.1832101 7.00976585 -18.1832101 7.00976585 -17.984375 9.36328125 C-16.54937921 13.20701998 -13.68157214 14.2722779 -10.1875 16 C-5.52645252 18.34722146 -1.80862514 20.43862383 1 25 C1.53629837 28.19590046 1.06666202 30.9492361 0 34 C-2.21399333 36.72096572 -4.86086384 38.43043192 -8 40 C-10.12235807 40.1229938 -12.24911463 40.17555682 -14.375 40.1875 C-16.08816406 40.20876953 -16.08816406 40.20876953 -17.8359375 40.23046875 C-21 40 -21 40 -25 38 C-25 34.37 -25 30.74 -25 27 C-23.68 26.67 -22.36 26.34 -21 26 C-20.01 28.97 -19.02 31.94 -18 35 C-16.37536158 35.05395478 -14.75021459 35.09277195 -13.125 35.125 C-11.76761719 35.15980469 -11.76761719 35.15980469 -10.3828125 35.1953125 C-7.81193006 35.24324836 -7.81193006 35.24324836 -6 33 C-5.41597867 30.58582128 -5.41597867 30.58582128 -6 28 C-9.55830382 24.32308606 -14.28053688 21.99428206 -18.6953125 19.46484375 C-21.68726622 17.56317825 -23.58099035 16.07745339 -24.875 12.75 C-25.05566106 8.77545678 -23.94341825 6.44800013 -22 3 C-16.9456462 -2.32756211 -6.54746067 -3.27373033 0 0 Z " fill="#000000" transform="translate(115,45)"/>
<path d="M0 0 C1.00836914 0.0009668 1.00836914 0.0009668 2.03710938 0.00195312 C5.10163171 0.0293421 7.5102161 0.2117387 10.4375 1.1875 C10.1075 5.1475 9.7775 9.1075 9.4375 13.1875 C8.1175 13.1875 6.7975 13.1875 5.4375 13.1875 C5.14875 12.053125 4.86 10.91875 4.5625 9.75 C4.19125 8.574375 3.82 7.39875 3.4375 6.1875 C0.21120663 4.57435332 -3.06482628 4.7445916 -6.5625 5.1875 C-10.79362438 7.02364831 -12.82267865 9.0012923 -14.5625 13.1875 C-16.18863435 18.99924643 -15.28142548 24.48266035 -13.5625 30.1875 C-11.70132992 33.15373981 -10.6480694 34.6447153 -7.5625 36.1875 C-4.17817241 36.60022288 -0.93975097 36.68399408 2.4375 36.1875 C5.31161615 33.59378543 6.22266202 31.83201394 7.4375 28.1875 C9.5 27.5 9.5 27.5 11.4375 27.1875 C11.43148535 28.95881325 11.38137098 30.73001593 11.3125 32.5 C11.28929687 33.48613281 11.26609375 34.47226563 11.2421875 35.48828125 C10.4375 38.1875 10.4375 38.1875 7.8203125 40.01953125 C4.15146574 41.28625779 1.3111743 41.5879847 -2.5625 41.5625 C-3.738125 41.57023437 -4.91375 41.57796875 -6.125 41.5859375 C-12.40118909 40.85847013 -16.55617585 37.97283162 -20.5625 33.1875 C-23.57787182 27.01316723 -23.52743558 19.52865694 -21.5625 13 C-19.26238082 7.57436001 -14.56939814 4.18550469 -9.78125 1.00390625 C-6.49864877 -0.2039523 -3.48206098 -0.03744152 0 0 Z " fill="#000000" transform="translate(35.5625,43.8125)"/>
</svg>
